<svg width="1093" height="1024" viewBox="0 0 1093 1024" fill="none" xmlns="http://www.w3.org/2000/svg">
<path d="M1092.19 1023V547.269C1092.19 246.053 847.42 1 546.596 1C245.773 1 1 246.053 1 547.269V1023H1092.19Z" stroke="#2B4D6B" stroke-width="1.38" stroke-miterlimit="10"/>
<path d="M546.596 37.9824C613.393 37.9824 679.536 51.1568 741.247 76.7533C802.959 102.35 859.03 139.867 906.261 187.163C953.491 234.459 990.956 290.607 1016.51 352.401C1042.07 414.195 1055.22 480.425 1055.22 547.309V1022.57H37.9343V547.309C37.9292 480.421 51.0826 414.188 76.6434 352.392C102.204 290.595 139.672 234.445 186.906 187.149C234.141 139.853 290.218 102.336 351.934 76.742C413.65 51.1478 479.797 37.9773 546.596 37.9824Z" stroke="#2B4D6B" stroke-width="1.38" stroke-miterlimit="10"/>
<path d="M602.332 747.857H892.339L692.445 401.19H402.439" stroke="#2B4D6B" stroke-width="1.38" stroke-linecap="round" stroke-linejoin="round"/>
<path d="M663.26 401.19L863.192 747.857" stroke="#2B4D6B" stroke-width="1.38" stroke-linecap="round" stroke-linejoin="round"/>
<path d="M634.114 401.19L834.007 747.857" stroke="#2B4D6B" stroke-width="1.38" stroke-linecap="round" stroke-linejoin="round"/>
<path d="M604.928 401.19L804.821 747.857" stroke="#2B4D6B" stroke-width="1.38" stroke-linecap="round" stroke-linejoin="round"/>
<path d="M575.742 401.19L775.636 747.857" stroke="#2B4D6B" stroke-width="1.38" stroke-linecap="round" stroke-linejoin="round"/>
<path d="M546.596 401.19L746.49 747.857" stroke="#2B4D6B" stroke-width="1.38" stroke-linecap="round" stroke-linejoin="round"/>
<path d="M517.411 401.19L717.304 747.857" stroke="#2B4D6B" stroke-width="1.38" stroke-linecap="round" stroke-linejoin="round"/>
<path d="M488.225 401.19L688.119 747.857" stroke="#2B4D6B" stroke-width="1.38" stroke-linecap="round" stroke-linejoin="round"/>
<path d="M459.04 401.19L658.933 747.857" stroke="#2B4D6B" stroke-width="1.38" stroke-linecap="round" stroke-linejoin="round"/>
<path d="M429.894 401.19L629.787 747.857" stroke="#2B4D6B" stroke-width="1.38" stroke-linecap="round" stroke-linejoin="round"/>
<path d="M402.439 401.19L202.545 747.857H602.332L402.439 401.19Z" stroke="#2B4D6B" stroke-width="1.38" stroke-linecap="round" stroke-linejoin="round"/>
<path d="M445.863 628.126H360.588V747.857H445.863V628.126Z" stroke="#2B4D6B" stroke-width="1.38" stroke-linecap="round" stroke-linejoin="round"/>
<path d="M390.481 703.194C393.61 703.194 396.145 700.655 396.145 697.523C396.145 694.391 393.61 691.852 390.481 691.852C387.353 691.852 384.817 694.391 384.817 697.523C384.817 700.655 387.353 703.194 390.481 703.194Z" stroke="#2B4D6B" stroke-width="1.38" stroke-linecap="round" stroke-linejoin="round"/>
<path d="M414.396 703.194C417.524 703.194 420.06 700.655 420.06 697.523C420.06 694.391 417.524 691.852 414.396 691.852C411.268 691.852 408.732 694.391 408.732 697.523C408.732 700.655 411.268 703.194 414.396 703.194Z" stroke="#2B4D6B" stroke-width="1.38" stroke-linecap="round" stroke-linejoin="round"/>
<path d="M360.588 643.802H445.863" stroke="#2B4D6B" stroke-width="1.38" stroke-linecap="round" stroke-linejoin="round"/>
<path d="M360.588 628.126H341.314V747.857" stroke="#2B4D6B" stroke-width="1.38" stroke-linecap="round" stroke-linejoin="round"/>
<path d="M349.063 649.158H352.721" stroke="#2B4D6B" stroke-width="1.38" stroke-linecap="round" stroke-linejoin="round"/>
<path d="M349.063 669.835H352.721" stroke="#2B4D6B" stroke-width="1.38" stroke-linecap="round" stroke-linejoin="round"/>
<path d="M349.063 690.552H352.721" stroke="#2B4D6B" stroke-width="1.38" stroke-linecap="round" stroke-linejoin="round"/>
<path d="M349.063 711.268H352.721" stroke="#2B4D6B" stroke-width="1.38" stroke-linecap="round" stroke-linejoin="round"/>
<path d="M349.063 731.984H352.721" stroke="#2B4D6B" stroke-width="1.38" stroke-linecap="round" stroke-linejoin="round"/>
<path d="M446.414 628.126H465.687V747.857" stroke="#2B4D6B" stroke-width="1.38" stroke-linecap="round" stroke-linejoin="round"/>
<path d="M457.939 649.158H454.281" stroke="#2B4D6B" stroke-width="1.38" stroke-linecap="round" stroke-linejoin="round"/>
<path d="M457.939 669.835H454.281" stroke="#2B4D6B" stroke-width="1.38" stroke-linecap="round" stroke-linejoin="round"/>
<path d="M457.939 690.552H454.281" stroke="#2B4D6B" stroke-width="1.38" stroke-linecap="round" stroke-linejoin="round"/>
<path d="M457.939 711.268H454.281" stroke="#2B4D6B" stroke-width="1.38" stroke-linecap="round" stroke-linejoin="round"/>
<path d="M457.939 731.984H454.281" stroke="#2B4D6B" stroke-width="1.38" stroke-linecap="round" stroke-linejoin="round"/>
<path d="M402.36 520.566C412.744 520.566 421.162 512.137 421.162 501.74C421.162 491.343 412.744 482.914 402.36 482.914C391.976 482.914 383.559 491.343 383.559 501.74C383.559 512.137 391.976 520.566 402.36 520.566Z" stroke="#2B4D6B" stroke-width="1.38" stroke-linecap="round" stroke-linejoin="round"/>
<path d="M383.991 497.684H420.847" stroke="#2B4D6B" stroke-width="1.38" stroke-linecap="round" stroke-linejoin="round"/>
<path d="M280.819 612.058V747.857" stroke="#2B4D6B" stroke-width="1.38" stroke-linecap="round" stroke-linejoin="round"/>
<path d="M523.35 610.837V747.857" stroke="#2B4D6B" stroke-width="1.38" stroke-linecap="round" stroke-linejoin="round"/>
<path d="M402.439 403.593V747.857" stroke="#2B4D6B" stroke-width="1.38" stroke-linecap="round" stroke-linejoin="round"/>
<path d="M311.854 558.297H492.08" stroke="#2B4D6B" stroke-width="1.38" stroke-linecap="round" stroke-linejoin="round"/>
<path d="M306.701 567.237H498.177" stroke="#2B4D6B" stroke-width="1.38" stroke-linecap="round" stroke-linejoin="round"/>
<path d="M271.222 629.702V747.857" stroke="#2B4D6B" stroke-width="1.38" stroke-linecap="round" stroke-linejoin="round"/>
<path d="M534.442 631.08V747.856" stroke="#2B4D6B" stroke-width="1.38" stroke-linecap="round" stroke-linejoin="round"/>
<path d="M155.266 606.583C202.732 606.583 241.21 568.054 241.21 520.527C241.21 472.999 202.732 434.471 155.266 434.471C107.801 434.471 69.3225 472.999 69.3225 520.527C69.3225 568.054 107.801 606.583 155.266 606.583Z" stroke="#2B4D6B" stroke-width="1.38" stroke-linecap="round" stroke-linejoin="round"/>
<path d="M155.266 434.471V747.857" stroke="#2B4D6B" stroke-width="1.38" stroke-linecap="round" stroke-linejoin="round"/>
<path d="M104.094 451.367L155.267 497.683" stroke="#2B4D6B" stroke-width="1.38" stroke-linecap="round" stroke-linejoin="round"/>
<path d="M84.4658 471.729L155.266 538.29" stroke="#2B4D6B" stroke-width="1.38" stroke-linecap="round" stroke-linejoin="round"/>
<path d="M71.3677 501.74L155.266 578.895" stroke="#2B4D6B" stroke-width="1.38" stroke-linecap="round" stroke-linejoin="round"/>
<path d="M72.8232 544.945L139.336 605.126" stroke="#2B4D6B" stroke-width="1.38" stroke-linecap="round" stroke-linejoin="round"/>
<path d="M206.439 451.367L155.266 497.683" stroke="#2B4D6B" stroke-width="1.38" stroke-linecap="round" stroke-linejoin="round"/>
<path d="M226.067 471.729L155.266 538.29" stroke="#2B4D6B" stroke-width="1.38" stroke-linecap="round" stroke-linejoin="round"/>
<path d="M239.165 501.74L155.266 578.895" stroke="#2B4D6B" stroke-width="1.38" stroke-linecap="round" stroke-linejoin="round"/>
<path d="M237.71 544.945L171.197 605.126" stroke="#2B4D6B" stroke-width="1.38" stroke-linecap="round" stroke-linejoin="round"/>
<path d="M924.474 657.547C971.94 657.547 1010.42 619.019 1010.42 571.491C1010.42 523.964 971.94 485.435 924.474 485.435C877.009 485.435 838.53 523.964 838.53 571.491C838.53 619.019 877.009 657.547 924.474 657.547Z" stroke="#2B4D6B" stroke-width="1.38" stroke-linecap="round" stroke-linejoin="round"/>
<path d="M924.474 485.435V747.857" stroke="#2B4D6B" stroke-width="1.38" stroke-linecap="round" stroke-linejoin="round"/>
<path d="M873.301 502.331L924.474 548.608" stroke="#2B4D6B" stroke-width="1.38" stroke-linecap="round" stroke-linejoin="round"/>
<path d="M853.674 522.693L924.474 589.253" stroke="#2B4D6B" stroke-width="1.38" stroke-linecap="round" stroke-linejoin="round"/>
<path d="M840.576 552.704L924.474 629.859" stroke="#2B4D6B" stroke-width="1.38" stroke-linecap="round" stroke-linejoin="round"/>
<path d="M842.031 595.909L908.544 656.089" stroke="#2B4D6B" stroke-width="1.38" stroke-linecap="round" stroke-linejoin="round"/>
<path d="M975.647 502.331L924.474 548.608" stroke="#2B4D6B" stroke-width="1.38" stroke-linecap="round" stroke-linejoin="round"/>
<path d="M995.275 522.693L924.474 589.253" stroke="#2B4D6B" stroke-width="1.38" stroke-linecap="round" stroke-linejoin="round"/>
<path d="M1008.37 552.704L924.474 629.859" stroke="#2B4D6B" stroke-width="1.38" stroke-linecap="round" stroke-linejoin="round"/>
<path d="M1006.92 595.909L940.404 656.089" stroke="#2B4D6B" stroke-width="1.38" stroke-linecap="round" stroke-linejoin="round"/>
<path d="M37.9343 747.857H1055.22" stroke="#2B4D6B" stroke-width="1.38" stroke-linecap="round" stroke-linejoin="round"/>
<path d="M311.971 950.335C311.433 922.149 299.872 895.3 279.775 875.557C259.677 855.815 232.647 844.755 204.492 844.755C176.338 844.755 149.307 855.815 129.21 875.557C109.112 895.3 97.5517 922.149 97.0132 950.335H311.971Z" stroke="#2B4D6B" stroke-width="1.38" stroke-linecap="round" stroke-linejoin="round"/>
<path d="M204.473 843.444V950.335" stroke="#2B4D6B" stroke-width="1.38" stroke-linecap="round" stroke-linejoin="round"/>
<path d="M144.568 861.679L199.517 950.335" stroke="#2B4D6B" stroke-width="1.38" stroke-linecap="round" stroke-linejoin="round"/>
<path d="M110.033 899.607L166.476 950.335" stroke="#2B4D6B" stroke-width="1.38" stroke-linecap="round" stroke-linejoin="round"/>
<path d="M264.26 861.679L209.311 950.335" stroke="#2B4D6B" stroke-width="1.38" stroke-linecap="round" stroke-linejoin="round"/>
<path d="M298.795 899.607L242.351 950.335" stroke="#2B4D6B" stroke-width="1.38" stroke-linecap="round" stroke-linejoin="round"/>
<path d="M962.785 846.477C962.785 832.072 957.07 818.258 946.898 808.073C936.726 797.887 922.93 792.165 908.544 792.165C894.158 792.165 880.362 797.887 870.19 808.073C860.018 818.258 854.303 832.072 854.303 846.477H962.785Z" stroke="#2B4D6B" stroke-width="1.38" stroke-linecap="round" stroke-linejoin="round"/>
<path d="M908.544 792.559V846.477" stroke="#2B4D6B" stroke-width="1.38" stroke-linecap="round" stroke-linejoin="round"/>
<path d="M878.297 801.775L906.027 846.477" stroke="#2B4D6B" stroke-width="1.38" stroke-linecap="round" stroke-linejoin="round"/>
<path d="M860.911 820.916L889.389 846.477" stroke="#2B4D6B" stroke-width="1.38" stroke-linecap="round" stroke-linejoin="round"/>
<path d="M938.713 801.775L910.983 846.477" stroke="#2B4D6B" stroke-width="1.38" stroke-linecap="round" stroke-linejoin="round"/>
<path d="M956.138 820.916L927.66 846.477" stroke="#2B4D6B" stroke-width="1.38" stroke-linecap="round" stroke-linejoin="round"/>
<path d="M360.391 745.375C361.099 764.477 376.125 779.995 392.094 790.471C437.76 820.483 495.03 824.618 547.54 839.663C563.53 843.752 578.808 850.245 592.853 858.922C606.934 867.711 617.784 880.842 623.769 896.338C628.489 909.729 628.292 924.301 627.034 938.401C624.584 967.352 617.616 995.738 606.383 1022.53" stroke="#2B4D6B" stroke-width="1.38" stroke-linecap="round" stroke-linejoin="round"/>
<path d="M446.453 745.375C449.442 764.241 466.12 777.829 483.348 786.336C532.279 810.636 589.549 807.879 643.554 816.505C659.884 818.656 675.797 823.263 690.754 830.171C705.787 837.218 718.137 848.949 725.958 863.609C731.619 876.662 734.435 890.774 734.218 905.003C735.083 934.502 721.946 994.17 713.882 1022.53" stroke="#2B4D6B" stroke-width="1.38" stroke-linecap="round" stroke-linejoin="round"/>
<path d="M37.9343 792.559H184.137" stroke="#2B4D6B" stroke-width="1.38" stroke-linecap="round" stroke-linejoin="round"/>
<path d="M198.14 792.559H233.894" stroke="#2B4D6B" stroke-width="1.38" stroke-linecap="round" stroke-linejoin="round"/>
<path d="M396.106 906.026H542.584" stroke="#2B4D6B" stroke-width="1.38" stroke-linecap="round" stroke-linejoin="round"/>
<path d="M646.543 778.813H797.466" stroke="#2B4D6B" stroke-width="1.38" stroke-linecap="round" stroke-linejoin="round"/>
<path d="M813.75 778.813H860.911" stroke="#2B4D6B" stroke-width="1.38" stroke-linecap="round" stroke-linejoin="round"/>
<path d="M742.517 934.344H813.75" stroke="#2B4D6B" stroke-width="1.38" stroke-linecap="round" stroke-linejoin="round"/>
<path d="M838.491 934.344H873.301" stroke="#2B4D6B" stroke-width="1.38" stroke-linecap="round" stroke-linejoin="round"/>
<path d="M927.66 880.19H1028.31" stroke="#2B4D6B" stroke-width="1.38" stroke-linecap="round" stroke-linejoin="round"/>
<path d="M306.701 985.899H144.568" stroke="#2B4D6B" stroke-width="1.38" stroke-linecap="round" stroke-linejoin="round"/>
<path d="M442.166 833.677H371.798" stroke="#2B4D6B" stroke-width="1.38" stroke-linecap="round" stroke-linejoin="round"/>
<path d="M392.133 358.891H362.948C363.754 353.302 363.323 347.603 361.684 342.199C360.046 336.795 357.241 331.817 353.468 327.619C349.592 323.404 344.678 320.282 339.217 318.568C333.756 316.854 327.942 316.607 322.356 317.852C316.808 319.266 311.83 322.357 308.099 326.706C304.369 331.054 302.068 336.448 301.509 342.153" stroke="#2B4D6B" stroke-width="1.38" stroke-miterlimit="10" stroke-linecap="round"/>
<path d="M319.209 318.285C317.531 312.023 313.992 306.419 309.061 302.216C304.158 297.064 298.2 293.033 291.597 290.401C286.954 288.817 282.036 288.199 277.146 288.585C272.256 288.971 267.496 290.353 263.159 292.646C254.456 297.35 247.627 304.898 243.806 314.032" stroke="#2B4D6B" stroke-width="1.38" stroke-miterlimit="10" stroke-linecap="round"/>
<path d="M244.79 309.424C241.183 306.991 236.922 305.715 232.573 305.764C228.224 305.813 223.994 307.186 220.442 309.699C216.961 312.294 214.036 315.562 211.84 319.31C209.644 323.058 208.222 327.21 207.659 331.518C206.58 340.672 207.167 349.946 209.39 358.891H190.706" stroke="#2B4D6B" stroke-width="1.38" stroke-miterlimit="10" stroke-linecap="round"/>
<path d="M633.917 288.51C625.896 285.149 618.919 279.698 613.713 272.725C608.507 265.751 605.26 257.509 604.311 248.854C603.362 240.199 604.745 231.448 608.315 223.509C611.886 215.57 617.515 208.733 624.616 203.709C631.718 198.685 640.034 195.657 648.7 194.939C657.365 194.221 666.065 195.839 673.895 199.626C681.725 203.413 688.399 209.231 693.224 216.474C698.05 223.717 700.85 232.122 701.335 240.815" stroke="#2B4D6B" stroke-width="1.38" stroke-linecap="round" stroke-linejoin="round"/>
<path d="M818.903 311.235H789.757C790.547 305.643 790.104 299.946 788.459 294.543C786.815 289.14 784.009 284.164 780.238 279.964C776.366 275.741 771.453 272.612 765.992 270.891C760.531 269.169 754.715 268.916 749.125 270.157C743.574 271.578 738.595 274.677 734.865 279.032C731.135 283.387 728.835 288.787 728.278 294.497" stroke="#2B4D6B" stroke-width="1.38" stroke-miterlimit="10" stroke-linecap="round"/>
<path d="M745.978 270.669C744.288 264.432 740.767 258.848 735.869 254.639C730.955 249.482 724.984 245.451 718.366 242.824C713.723 241.24 708.806 240.622 703.916 241.008C699.026 241.394 694.266 242.776 689.928 245.069C681.226 249.773 674.396 257.321 670.576 266.455" stroke="#2B4D6B" stroke-width="1.38" stroke-miterlimit="10" stroke-linecap="round"/>
<path d="M671.559 261.768C667.952 259.335 663.691 258.059 659.342 258.108C654.994 258.158 650.763 259.53 647.212 262.043C643.73 264.638 640.805 267.907 638.609 271.655C636.413 275.403 634.992 279.554 634.428 283.863C633.347 293.082 633.934 302.421 636.159 311.432H617.397" stroke="#2B4D6B" stroke-width="1.38" stroke-miterlimit="10" stroke-linecap="round"/>
</svg>
