<svg xmlns="http://www.w3.org/2000/svg" viewBox="0 0 278.79 260.87"><defs><style>.cls-1,.cls-2,.cls-3{fill:none;stroke:#fffcf2;stroke-width:1.38px;}.cls-1,.cls-3{stroke-miterlimit:10;}.cls-2,.cls-3{stroke-linecap:round;}.cls-2{stroke-linejoin:round;}</style></defs><g id="OBJECTS"><path class="cls-1" d="M388.71,336.93V216.14c0-76.48-62.23-138.7-138.71-138.7s-138.71,62.22-138.71,138.7V336.93Z" transform="translate(-110.6 -76.75)"/><path class="cls-1" d="M139.4,10.08h0A129.31,129.31,0,0,1,268.71,139.4V260.07a0,0,0,0,1,0,0H10.08a0,0,0,0,1,0,0V139.4A129.31,129.31,0,0,1,139.4,10.08Z"/><polyline class="cls-2" points="153.57 190.32 227.3 190.32 176.48 102.3 102.75 102.3"/><line class="cls-2" x1="169.06" y1="102.3" x2="219.89" y2="190.32"/><line class="cls-2" x1="161.65" y1="102.3" x2="212.47" y2="190.32"/><line class="cls-2" x1="154.23" y1="102.3" x2="205.05" y2="190.32"/><line class="cls-2" x1="146.81" y1="102.3" x2="197.63" y2="190.32"/><line class="cls-2" x1="139.4" y1="102.3" x2="190.22" y2="190.32"/><line class="cls-2" x1="131.98" y1="102.3" x2="182.8" y2="190.32"/><line class="cls-2" x1="124.56" y1="102.3" x2="175.38" y2="190.32"/><line class="cls-2" x1="117.14" y1="102.3" x2="167.96" y2="190.32"/><line class="cls-2" x1="109.73" y1="102.3" x2="160.55" y2="190.32"/><polygon class="cls-2" points="102.75 102.3 51.93 190.32 153.57 190.32 102.75 102.3"/><rect class="cls-2" x="92.11" y="159.92" width="21.68" height="30.4"/><circle class="cls-2" cx="99.71" cy="177.54" r="1.44"/><circle class="cls-2" cx="105.79" cy="177.54" r="1.44"/><line class="cls-2" x1="92.11" y1="163.9" x2="113.79" y2="163.9"/><polyline class="cls-2" points="92.11 159.92 87.21 159.92 87.21 190.32"/><line class="cls-2" x1="89.18" y1="165.26" x2="90.11" y2="165.26"/><line class="cls-2" x1="89.18" y1="170.51" x2="90.11" y2="170.51"/><line class="cls-2" x1="89.18" y1="175.77" x2="90.11" y2="175.77"/><line class="cls-2" x1="89.18" y1="181.03" x2="90.11" y2="181.03"/><line class="cls-2" x1="89.18" y1="186.29" x2="90.11" y2="186.29"/><polyline class="cls-2" points="113.93 159.92 118.83 159.92 118.83 190.32"/><line class="cls-2" x1="116.86" y1="165.26" x2="115.93" y2="165.26"/><line class="cls-2" x1="116.86" y1="170.51" x2="115.93" y2="170.51"/><line class="cls-2" x1="116.86" y1="175.77" x2="115.93" y2="175.77"/><line class="cls-2" x1="116.86" y1="181.03" x2="115.93" y2="181.03"/><line class="cls-2" x1="116.86" y1="186.29" x2="115.93" y2="186.29"/><circle class="cls-2" cx="102.73" cy="127.83" r="4.78"/><line class="cls-2" x1="98.06" y1="126.8" x2="107.43" y2="126.8"/><line class="cls-2" x1="71.83" y1="155.84" x2="71.83" y2="190.32"/><line class="cls-2" x1="133.49" y1="155.53" x2="133.49" y2="190.32"/><line class="cls-2" x1="102.75" y1="102.91" x2="102.75" y2="190.32"/><line class="cls-2" x1="79.72" y1="142.19" x2="125.54" y2="142.19"/><line class="cls-2" x1="78.41" y1="144.46" x2="127.09" y2="144.46"/><line class="cls-2" x1="69.39" y1="160.32" x2="69.39" y2="190.32"/><line class="cls-2" x1="136.31" y1="160.67" x2="136.31" y2="190.32"/><circle class="cls-2" cx="39.91" cy="132.6" r="21.85"/><line class="cls-2" x1="39.91" y1="110.75" x2="39.91" y2="190.32"/><line class="cls-2" x1="26.9" y1="115.04" x2="39.91" y2="126.8"/><line class="cls-2" x1="21.91" y1="120.21" x2="39.91" y2="137.11"/><line class="cls-2" x1="18.58" y1="127.83" x2="39.91" y2="147.42"/><line class="cls-2" x1="18.95" y1="138.8" x2="35.86" y2="154.08"/><line class="cls-2" x1="52.92" y1="115.04" x2="39.91" y2="126.8"/><line class="cls-2" x1="57.91" y1="120.21" x2="39.91" y2="137.11"/><line class="cls-2" x1="61.24" y1="127.83" x2="39.91" y2="147.42"/><line class="cls-2" x1="60.87" y1="138.8" x2="43.96" y2="154.08"/><circle class="cls-2" cx="235.47" cy="145.54" r="21.85"/><line class="cls-2" x1="235.47" y1="123.69" x2="235.47" y2="190.32"/><line class="cls-2" x1="222.46" y1="127.98" x2="235.47" y2="139.73"/><line class="cls-2" x1="217.47" y1="133.15" x2="235.47" y2="150.05"/><line class="cls-2" x1="214.14" y1="140.77" x2="235.47" y2="160.36"/><line class="cls-2" x1="214.51" y1="151.74" x2="231.42" y2="167.02"/><line class="cls-2" x1="248.48" y1="127.98" x2="235.47" y2="139.73"/><line class="cls-2" x1="253.47" y1="133.15" x2="235.47" y2="150.05"/><line class="cls-2" x1="256.8" y1="140.77" x2="235.47" y2="160.36"/><line class="cls-2" x1="256.43" y1="151.74" x2="239.52" y2="167.02"/><line class="cls-2" x1="10.08" y1="190.32" x2="268.71" y2="190.32"/><path class="cls-2" d="M190.35,318.48a27.33,27.33,0,0,0-54.65,0Z" transform="translate(-110.6 -76.75)"/><line class="cls-2" x1="52.42" y1="214.59" x2="52.42" y2="241.73"/><line class="cls-2" x1="37.19" y1="219.22" x2="51.16" y2="241.73"/><line class="cls-2" x1="28.41" y1="228.85" x2="42.76" y2="241.73"/><line class="cls-2" x1="67.62" y1="219.22" x2="53.65" y2="241.73"/><line class="cls-2" x1="76.4" y1="228.85" x2="62.05" y2="241.73"/><path class="cls-2" d="M355.81,292.11a13.79,13.79,0,0,0-27.58,0Z" transform="translate(-110.6 -76.75)"/><line class="cls-2" x1="231.42" y1="201.67" x2="231.42" y2="215.36"/><line class="cls-2" x1="223.73" y1="204.01" x2="230.78" y2="215.36"/><line class="cls-2" x1="219.31" y1="208.87" x2="226.55" y2="215.36"/><line class="cls-2" x1="239.09" y1="204.01" x2="232.04" y2="215.36"/><line class="cls-2" x1="243.52" y1="208.87" x2="236.28" y2="215.36"/><path class="cls-2" d="M202.66,266.44c.18,4.85,4,8.79,8.06,11.45,11.61,7.62,26.17,8.67,39.52,12.49a41.49,41.49,0,0,1,11.52,4.89,19.47,19.47,0,0,1,7.86,9.5c1.2,3.4,1.15,7.1.83,10.68a70.57,70.57,0,0,1-5.25,21.36" transform="translate(-110.6 -76.75)"/><path class="cls-2" d="M224.54,266.44c.76,4.79,5,8.24,9.38,10.4,12.44,6.17,27,5.47,40.73,7.66a41.61,41.61,0,0,1,12,3.47,19.54,19.54,0,0,1,8.95,8.49,25.41,25.41,0,0,1,2.1,10.51c.22,7.49-3.12,22.64-5.17,29.84" transform="translate(-110.6 -76.75)"/><line class="cls-2" x1="10.08" y1="201.67" x2="47.25" y2="201.67"/><line class="cls-2" x1="50.81" y1="201.67" x2="59.9" y2="201.67"/><line class="cls-2" x1="101.14" y1="230.48" x2="138.38" y2="230.48"/><line class="cls-2" x1="164.81" y1="198.18" x2="203.18" y2="198.18"/><line class="cls-2" x1="207.32" y1="198.18" x2="219.31" y2="198.18"/><line class="cls-2" x1="189.21" y1="237.67" x2="207.32" y2="237.67"/><line class="cls-2" x1="213.61" y1="237.67" x2="222.46" y2="237.67"/><line class="cls-2" x1="236.28" y1="223.92" x2="261.87" y2="223.92"/><line class="cls-2" x1="78.41" y1="250.76" x2="37.19" y2="250.76"/><line class="cls-2" x1="112.85" y1="212.11" x2="94.96" y2="212.11"/><path class="cls-3" d="M210.73,168.31h-7.42a9.78,9.78,0,0,0-2.41-7.94,8.3,8.3,0,0,0-7.91-2.48,7.08,7.08,0,0,0-5.3,6.17" transform="translate(-110.6 -76.75)"/><path class="cls-3" d="M192.19,158a8.12,8.12,0,0,0-2.58-4.08,12.54,12.54,0,0,0-4.44-3,9.16,9.16,0,0,0-7.23.57,11,11,0,0,0-4.92,5.43" transform="translate(-110.6 -76.75)"/><path class="cls-3" d="M173.27,155.75a5.45,5.45,0,0,0-6.19.07,8.24,8.24,0,0,0-3.25,5.54,19.38,19.38,0,0,0,.44,6.95h-4.75" transform="translate(-110.6 -76.75)"/><path class="cls-2" d="M272.2,150.44a12.38,12.38,0,1,1,17.14-12.11" transform="translate(-110.6 -76.75)"/><path class="cls-3" d="M319.23,156.21h-7.41a9.82,9.82,0,0,0-2.42-7.94,8.3,8.3,0,0,0-7.91-2.49,7.09,7.09,0,0,0-5.3,6.18" transform="translate(-110.6 -76.75)"/><path class="cls-3" d="M300.69,145.91a8.19,8.19,0,0,0-2.57-4.07,12.54,12.54,0,0,0-4.45-3,9.16,9.16,0,0,0-7.23.57,11,11,0,0,0-4.92,5.43" transform="translate(-110.6 -76.75)"/><path class="cls-3" d="M281.77,143.65a5.45,5.45,0,0,0-6.19.07,8.24,8.24,0,0,0-3.25,5.54,19.63,19.63,0,0,0,.44,7H268" transform="translate(-110.6 -76.75)"/></g></svg>