<svg width="931" height="817" viewBox="0 0 931 817" fill="none" xmlns="http://www.w3.org/2000/svg">
<path d="M930.335 2.59024C924.152 9.8239 917.771 16.9053 911.817 24.3369C897.639 42.0784 883.308 59.7285 869.801 77.9726C865.415 83.927 860.861 85.3738 853.963 85.3585C777.514 85.1606 701.066 85.3585 624.618 85.3585C618.389 85.3585 618.389 85.2672 618.282 79.1757C618.282 76.602 618.282 74.0131 618.176 71.4547C617.922 69.3865 618.095 67.2882 618.684 65.2895C619.273 63.2909 620.267 61.4345 621.602 59.8351C627.45 52.8147 626.171 42.7789 619.409 35.3778C613.699 29.0578 602.932 27.5502 595.135 31.9665C587.338 36.3828 583.469 45.5353 586.332 53.8045C587.414 56.9417 590.277 59.424 592.089 62.3479C593.252 63.983 594.024 65.8642 594.343 67.8455C594.663 72.0638 594.16 76.3431 594.419 80.5615C594.663 84.5362 592.896 85.4042 589.302 85.389C542.733 85.2672 496.168 85.2113 449.609 85.2215C431.852 85.2215 414.11 85.4347 396.308 85.3585C392.729 85.3585 391.572 86.5311 391.602 90.0947C391.77 117.217 391.876 144.34 391.724 171.462C391.724 176.503 394.435 176.198 397.816 176.198C458.792 176.198 519.768 176.173 580.743 176.122C613.495 176.122 646.258 176.122 679.03 176.122C684.786 176.122 684.786 176.122 684.619 181.955C684.619 184.376 684.314 186.828 684.482 189.234C684.77 191.547 684.496 193.896 683.682 196.081C682.868 198.266 681.538 200.221 679.807 201.782C675.147 206.244 674.842 212.443 676.944 218.306C678.031 221.738 680.129 224.761 682.963 226.981C685.797 229.201 689.235 230.514 692.827 230.747C701.264 231.6 710.02 227.702 712.975 221.29C716.493 213.676 715.229 206.686 709.503 200.305C707.98 198.278 707.09 195.846 706.944 193.315C706.518 189.112 706.944 184.833 706.701 180.599C706.518 177.295 707.584 175.939 711.056 176.031C716.051 176.259 721.076 176.031 726.072 176.031H887.161H895.796C895.017 177.511 894.153 178.945 893.207 180.325C877.674 199.737 862.13 219.108 846.577 238.438C841.566 244.682 836.678 251.063 832.003 257.565C831.261 258.683 830.231 259.579 829.022 260.161C827.814 260.742 826.471 260.987 825.135 260.87C759.61 260.87 694.086 260.87 628.562 260.87C551.352 260.87 474.142 260.84 396.932 260.779C393.567 260.779 391.633 261.114 391.678 265.347C391.892 291.708 391.846 318.069 391.953 344.43C391.953 351.572 392.074 351.633 399.11 351.633L615.252 351.496C639.374 351.496 663.497 351.603 687.604 351.496C691.655 351.496 693.147 352.715 692.705 356.674C692.52 359.096 692.479 361.527 692.583 363.953C692.724 366.196 692.404 368.444 691.642 370.558C690.879 372.671 689.692 374.606 688.152 376.243C681.847 383.096 682.67 394.518 689.111 401.02C692.453 404.498 696.954 406.629 701.761 407.011C706.569 407.393 711.35 405.998 715.198 403.091C722.615 397.487 725.173 386.34 719.325 378.725C713.477 371.111 715.213 362.659 715.213 354.359C715.213 353.446 717.878 351.77 719.325 351.74C733.031 351.512 746.63 351.527 760.275 351.527C809.109 351.527 857.947 351.567 906.791 351.649C908.101 351.649 909.411 351.816 911.969 351.999C908.832 356.034 906.304 359.293 903.791 362.552C887.375 383.949 870.821 405.193 854.648 426.787C850.079 432.879 845.374 435.392 837.348 435.361C761.661 434.98 685.974 435.209 610.287 435.239C539.159 435.239 468.02 435.239 396.871 435.239C392.882 435.239 391.648 436.244 391.663 440.295C391.744 557.587 391.744 674.874 391.663 792.156V816.187C381.719 815.242 372.064 814.923 362.622 813.324C347.241 810.719 332.043 807.125 316.707 804.323C312.367 803.531 311.057 801.826 311.073 797.486C311.266 726.56 311.372 655.645 311.392 584.74C311.392 408.817 311.392 232.89 311.392 56.9569C311.392 39.9768 311.24 23.012 311.179 6.04715C311.179 4.52428 311.179 3.09278 311.179 1.00644H317.469H926.299C927.67 1.00644 929.025 0.915071 930.381 0.869385L930.335 2.59024Z" fill="white"/>
<path d="M42.7267 598.613C48.1633 596.314 53.3868 594.715 57.9554 592.004C62.1738 589.476 64.3972 580.948 62.6154 576.395C62.1764 575.791 61.605 575.296 60.945 574.948C60.2851 574.599 59.5542 574.407 58.8082 574.385C51.3766 574.232 43.945 574.273 36.5133 574.506C33.361 574.598 31.4878 573.654 30.2695 570.577C26.508 561.196 22.4876 551.937 18.2693 541.932C19.663 541.596 21.0772 541.352 22.5029 541.201C34.6859 541.11 46.7623 540.942 58.8996 541.094C62.6763 541.094 64.0622 539.815 64.0165 536.115C63.849 521.419 63.7423 506.708 63.8337 491.951C63.8337 488.144 62.4784 486.971 58.7625 487.017C43.3054 487.169 27.8329 487.017 12.3605 487.154C8.46196 487.154 6.49745 486.195 6.48222 481.855C6.25245 478.232 5.74331 474.632 4.95935 471.088C4.42634 467.783 5.52281 466.611 9.13203 466.687C24.3608 467.007 39.7571 466.9 55.0772 467.159C58.9757 467.159 60.6509 466.047 60.2854 461.951C59.958 458.025 59.8817 454.083 60.057 450.148C60.2093 446.113 58.7778 444.529 54.5137 444.605C39.285 444.864 24.178 444.864 9.0102 444.742C6.81725 444.742 4.62431 443.554 2.43137 442.915C2.94345 440.801 3.70517 438.756 4.70046 436.823C10.792 427.686 18.7261 422.036 30.4371 423.117C35.4016 423.589 40.4576 423.026 45.4526 423.193C48.94 423.315 50.3867 422.082 50.3258 418.488C50.1126 406.975 50.0212 395.462 50.0517 383.949C50.0517 380.751 48.7877 379.776 45.6963 379.822C32.5082 379.944 19.3048 379.746 6.1015 379.989C2.05065 380.066 0.421176 379.091 0.527778 374.766C0.786667 364.471 0.695294 354.161 0.603922 343.867C0.603922 340.395 1.83745 339.115 5.43144 339.161C18.7871 339.344 32.1274 339.161 45.4831 339.313C49.2903 339.313 50.539 337.958 50.4781 334.288C50.2852 323.12 50.2243 311.907 50.2954 300.648C50.2954 296.947 48.7725 296.079 45.3156 296.079C35.3103 296.216 25.2897 296.079 15.2844 296.079C9.81732 296.079 9.57366 295.79 11.1879 290.779C16.8835 273.038 22.7009 255.22 28.4726 237.357C29.432 234.311 30.8635 232.895 34.2595 232.941C60.1484 233.184 86.1286 233.443 112.048 233.291C117.85 233.291 121.277 236.337 124.947 239.717C126.85 241.453 125.891 242.626 124.246 244.088C120.637 247.076 117.285 250.362 114.226 253.911C113.183 255.217 112.511 256.781 112.282 258.437C112.052 260.093 112.273 261.781 112.922 263.322C113.57 264.863 114.621 266.201 115.966 267.195C117.31 268.19 118.897 268.803 120.561 268.972C124.596 269.55 128.708 269.764 132.744 269.977C136.521 270.16 138.607 271.378 138.257 275.749C137.899 280.736 137.853 285.741 138.12 290.734C138.287 294.967 136.932 296.566 132.409 296.475C115.124 296.14 97.8243 296.323 80.5397 296.018C76.4888 296.018 75.2553 297.206 75.301 301.165C75.4076 312.221 75.301 323.277 75.0116 334.334C74.9203 337.988 75.9101 339.405 79.8239 339.374C112.129 339.222 144.434 339.222 176.74 339.374C180.745 339.374 182.039 338.049 182.009 334.151C181.872 318.557 182.009 302.947 182.009 287.338C182.009 274.926 188.177 266.017 199.339 262.53C214.4 257.733 229.873 269.794 229.797 286.226C229.797 302.14 229.797 318.054 229.523 333.953C229.446 338.08 230.604 339.511 234.883 339.42C246.853 339.161 258.838 339.527 270.823 339.237C275.178 339.131 276.26 340.669 276.153 344.72C275.925 354.557 275.94 364.426 276.153 374.263C276.153 378.36 275.27 380.096 270.61 380.081C207.06 379.883 143.511 379.898 79.961 379.761C76.565 379.761 75.0269 380.568 75.0878 384.33C75.2858 395.69 75.2553 407.051 75.0878 418.412C75.0878 422.066 76.2452 423.605 80.1133 423.452C87.8495 423.178 95.5857 423.452 103.322 423.224C110.449 423.072 115.764 426.27 120.195 431.539C121.916 433.579 122.312 435.163 119.891 437.219C115.155 441.224 110.754 445.534 106.185 449.783C103.703 452.098 101.22 454.626 102.423 458.418C102.933 460.417 104.037 462.215 105.589 463.575C107.142 464.934 109.07 465.791 111.119 466.032C116.546 466.606 122.002 466.875 127.459 466.839C130.932 466.839 132.47 467.966 132.226 471.59C131.929 475.218 131.899 478.862 132.135 482.494C132.409 486.149 130.901 487.306 127.444 487.261C116.525 487.124 105.606 487.185 94.6872 487.093C88.2607 487.093 88.2302 486.987 88.2454 493.581C88.2454 507.835 88.4739 522.074 88.2454 536.313C88.2454 540.013 89.5855 541.11 92.9968 541.064C108.774 540.881 124.551 540.836 140.313 540.668C147.044 540.668 147.15 540.668 147.074 547.414C146.968 554.541 146.617 561.669 146.83 568.735C146.968 573.06 145.308 574.126 141.211 574.08C125.586 573.912 109.962 574.08 94.3369 573.973C90.2404 573.973 88.7784 575.039 88.885 579.349C89.2505 593.618 85.2454 606.136 72.4227 614.086C67.9464 616.601 63.2203 618.642 58.3209 620.177C57.5652 620.353 56.7772 620.333 56.0312 620.12C55.2851 619.907 54.6057 619.508 54.0569 618.959C50.0517 612.548 46.4425 605.923 42.6962 599.344C42.4982 598.933 42.7267 598.217 42.7267 598.613Z" fill="white"/>
<path d="M275.407 689.651C278.453 733.814 242.102 783.018 186.623 784.526C134.982 785.927 96.4233 747.033 93.7278 699.352C90.7734 648.32 127.673 605.801 181.095 603.41C231.533 601.309 273.351 639.244 275.407 689.651ZM184.385 731.18C204.806 731.484 222.152 714.809 222.456 694.631C222.761 674.453 205.339 656.848 185.07 656.559C175.279 656.541 165.864 660.329 158.814 667.123C151.764 673.917 147.631 683.186 147.287 692.971C146.556 713.149 163.536 731.423 184.385 731.18Z" fill="white"/>
<path d="M837.439 529.871C833.221 539.831 829.536 548.892 825.591 557.831C822.348 565.156 818.601 572.253 815.48 579.608C814.155 582.654 811.916 582.425 809.54 582.425H723.62C669.811 582.425 615.973 582.375 562.103 582.273C558.22 582.273 556.819 583.263 556.895 587.36C557.124 601.446 556.895 615.533 557.048 629.619C557.124 634.02 556.027 635.711 551.23 635.711C532.286 635.452 513.326 635.482 494.366 635.711C490.254 635.711 488.716 634.508 488.731 630.32C488.807 604.111 488.731 577.902 488.731 551.694C488.731 545.937 488.868 540.166 488.503 534.424C488.244 530.648 489.66 529.856 493.148 529.856C556.53 529.947 619.917 529.947 683.309 529.856H837.439V529.871Z" fill="white"/>
<path d="M797.266 614.939C793.169 621.517 789.804 627.411 785.875 632.893C785.113 633.769 784.179 634.479 783.131 634.98C782.083 635.48 780.944 635.76 779.783 635.802C728.523 635.903 677.253 635.868 625.973 635.695C621.968 635.695 620.749 636.746 620.78 640.797C621.069 669.732 621.161 698.666 621.267 727.601C621.267 731.53 620.81 735.474 620.871 739.403C620.932 743.332 619.15 744.611 615.313 744.596C593.764 744.459 572.231 744.505 550.697 744.505H437.395C428.958 744.505 428.258 744.124 428.258 735.581C428.085 695.265 428.019 654.96 428.06 614.664C428.06 568.597 428.06 522.53 427.953 476.463C427.953 471.971 429.019 470.509 433.756 470.539C461.518 470.661 489.264 470.539 517.026 470.281C521.991 470.281 525.874 471.803 528.57 476.052C530.595 479.281 531.128 482.707 529.225 485.936C527.321 489.164 524.915 492.362 520.087 492.347C498.402 492.256 476.716 492.515 455.03 492.347C450.827 492.347 449.67 493.504 449.67 497.723C449.842 570.76 449.873 643.797 449.761 716.834C449.761 720.748 450.705 722.103 454.817 721.997C464.518 721.738 474.234 721.89 483.919 722.119C487.513 722.119 488.716 720.9 488.67 717.367C488.533 703.661 488.67 690.092 488.518 676.463C488.518 672.701 489.493 671.62 493.437 671.65C512.854 671.757 532.255 671.574 551.672 671.224C555.89 671.224 557.169 672.381 557.093 676.615C556.834 690.321 557.093 703.89 556.926 717.535C556.926 721.372 558.19 722.469 561.89 722.408C572.357 722.266 582.82 722.332 593.277 722.606C597.084 722.712 598.196 721.433 598.18 717.687C598.043 684.96 598.18 652.203 597.982 619.507C597.982 615.974 598.576 614.345 602.551 614.36C665.334 614.451 728.127 614.451 790.931 614.36C792.971 614.512 794.875 614.771 797.266 614.939Z" fill="white"/>
<path d="M126.972 19.8291C144.454 15.5134 162.697 15.305 180.273 19.22C183.501 19.8748 183.029 21.7936 182.862 23.9104C182.374 30.0933 181.917 36.2762 181.339 42.459C181.152 43.7204 181.396 45.008 182.032 46.1134C182.667 47.2189 183.657 48.0776 184.841 48.5505C197.53 55.0086 207.392 65.9175 212.543 79.1908C213.038 79.9195 213.703 80.5175 214.48 80.9338C215.257 81.3501 216.123 81.5724 217.005 81.5817C223.324 81.1858 229.629 80.1502 235.949 79.6781C236.639 79.7945 237.288 80.0849 237.834 80.5219C238.38 80.959 238.806 81.5281 239.071 82.1757C241.138 98.5779 240.994 115.183 238.645 131.547C238.096 135.096 236.726 136.923 232.721 136.405C227.025 135.659 221.269 135.37 215.527 134.882C214.351 134.668 213.136 134.85 212.075 135.402C211.013 135.953 210.165 136.842 209.664 137.928C198.441 156.918 181.247 167.213 159.851 170.746C154.43 171.629 151.034 173.457 148.78 178.909C146.145 185.274 141.972 191.016 138.455 197.031C137.252 199.087 135.881 199.498 133.612 198.234C120.789 191.127 107.906 184.066 94.9613 177.051C92.1287 175.528 91.3216 174.279 93.4384 171.203C97.4007 165.486 101.051 159.558 104.373 153.446C104.681 152.595 104.786 151.684 104.681 150.785C104.575 149.886 104.261 149.025 103.764 148.268C95.4594 137.943 90.1449 125.539 88.3977 112.405C88.3521 111.211 87.8825 110.072 87.0731 109.193C86.2637 108.314 85.1676 107.752 83.9813 107.608C77.6919 106.009 71.4785 103.998 65.3718 101.775C64.7184 101.363 64.1802 100.792 63.8073 100.116C63.4345 99.4393 63.2392 98.6794 63.2398 97.907C67.1536 81.597 74.2197 66.5662 82.3214 51.977C83.8443 49.3272 85.5042 49.2054 87.8951 50.378C93.743 53.2258 99.6974 55.8908 105.469 58.8909C106.412 59.494 107.535 59.7509 108.646 59.6175C109.757 59.4842 110.787 58.9689 111.561 58.1599C116.357 54.2459 121.381 50.6202 126.607 47.3018C129.165 45.7789 129.911 44.1647 129.652 41.4844C128.663 34.266 127.779 27.078 126.972 19.8291ZM183.395 106.785C183.395 90.719 170.009 76.9065 154.323 76.8151C150.406 76.7182 146.51 77.4049 142.862 78.8349C139.215 80.2649 135.89 82.4094 133.083 85.1423C130.275 87.8753 128.043 91.1416 126.515 94.7495C124.988 98.3574 124.197 102.234 124.189 106.152C124.181 110.07 124.956 113.95 126.468 117.564C127.98 121.178 130.2 124.454 132.995 127.198C135.791 129.943 139.107 132.101 142.749 133.546C146.391 134.991 150.284 135.694 154.201 135.613C158.024 135.685 161.822 134.99 165.372 133.571C168.922 132.152 172.152 130.037 174.873 127.351C177.593 124.665 179.748 121.461 181.212 117.929C182.676 114.397 183.418 110.608 183.395 106.785Z" fill="white"/>
<path d="M171.151 444.148C171.151 433.092 170.983 422.021 171.242 410.965C171.303 407.514 172.059 404.111 173.466 400.96C174.37 398.694 175.968 396.773 178.03 395.471C180.093 394.169 182.514 393.553 184.948 393.711C198.441 393.97 211.964 394.213 225.441 393.635C234.579 393.223 240.67 401.249 240.67 408.772C240.812 432.559 240.782 456.347 240.579 480.134C240.506 482.846 239.531 485.456 237.807 487.55C228.106 498.363 218.131 508.947 208.065 519.424C207.385 519.803 206.62 520.002 205.842 520.002C205.064 520.002 204.298 519.803 203.618 519.424C193.507 508.977 183.471 498.454 173.816 487.611C172.019 485.601 171.303 482.068 171.227 479.22C170.983 467.494 171.151 455.783 171.151 444.148Z" fill="white"/>
<path d="M716.995 295.013C763.697 295.013 810.398 295.013 857.1 295.013C859.782 294.851 862.466 295.309 864.942 296.353C869.648 298.805 871.293 302.947 870.181 307.272C868.658 312.967 864.684 316.409 858.79 316.531C849.089 316.668 839.389 316.531 829.673 316.531H576.312C575.703 316.531 575.093 316.531 574.5 316.531C568.499 316.348 562.591 311.109 562.971 305.871C563.157 302.908 564.466 300.128 566.631 298.096C568.795 296.064 571.653 294.935 574.621 294.937C622.089 295.134 669.542 295.043 716.995 295.043V295.013Z" fill="white"/>
<path d="M587.794 119.638C630.882 119.638 673.959 119.638 717.026 119.638C720.035 119.532 723.041 119.928 725.919 120.811C727.985 121.424 729.78 122.722 731.012 124.49C732.243 126.258 732.837 128.392 732.696 130.542C732.577 132.832 731.716 135.022 730.244 136.78C728.772 138.538 726.767 139.769 724.533 140.289C721.572 140.931 718.549 141.247 715.518 141.233C638.765 141.233 562.017 141.233 485.274 141.233C475.726 141.233 466.162 141.324 456.614 141.309C454.95 141.355 453.287 141.191 451.664 140.821C446.319 139.42 442.147 133.847 442.725 129.111C443.319 124.131 448.284 119.882 454.01 119.821C466.299 119.684 478.589 119.699 490.879 119.684C523.184 119.684 555.489 119.684 587.794 119.684V119.638Z" fill="white"/>
<path d="M610.927 781.678C553.058 806.227 493.056 819.75 428.989 814.633C428.989 804.186 428.867 793.496 429.202 782.805C429.202 781.861 432.248 780.277 433.893 780.262C457.406 780.094 480.904 780.262 504.402 780.155C538.514 780.084 572.627 779.962 606.739 779.79C608.033 779.79 609.343 779.973 610.653 780.064L610.927 781.678Z" fill="white"/>
<path d="M755.859 672.732C728.797 705.702 697.502 733.83 659.354 756.49V749.85C659.263 725.317 659.217 700.783 659.035 676.25C659.035 673.067 659.628 671.681 663.238 671.59C692.492 671.59 721.747 671.27 751.001 671.103C752.326 671.103 753.651 671.285 754.96 671.392L755.859 672.732Z" fill="white"/>
<path d="M723.224 492.438C712.152 492.438 701.096 492.438 690.025 492.438C683.599 492.438 678.025 486.941 678.253 481.078C678.482 475.214 683.797 470.509 690.254 470.509C711.574 470.509 732.985 470.387 754.351 470.737C758.035 471.065 761.564 472.374 764.57 474.529C768.21 476.92 769.001 481.093 767.311 485.083C765.514 489.347 762.346 492.392 757.321 492.423C745.96 492.469 734.6 492.438 723.224 492.438Z" fill="white"/>
<path d="M604.896 492.484C594.754 492.484 584.596 492.484 574.439 492.484C568.347 492.484 562.834 487.672 562.606 482.266C562.626 479.206 563.847 476.277 566.006 474.109C568.165 471.941 571.09 470.708 574.149 470.677C594.597 470.545 615.049 470.499 635.506 470.539C638.187 470.435 640.823 471.254 642.974 472.858C645.125 474.463 646.66 476.757 647.324 479.357C647.904 481.576 647.72 483.925 646.803 486.027C645.886 488.129 644.289 489.862 642.268 490.946C640.255 491.933 638.037 492.428 635.795 492.393C625.486 492.545 615.191 492.393 604.881 492.393L604.896 492.484Z" fill="white"/>
<path d="M487.178 295.058C497.473 295.058 507.767 295.058 518.077 295.058C525.159 295.058 530.26 299.292 530.367 305.018C530.458 311.033 524.93 316.5 518.184 316.531C497.138 316.632 476.091 316.632 455.045 316.531C448.664 316.531 443.471 311.521 443.563 306.038C443.669 299.444 448.299 295.134 455.396 295.104C466.056 295.104 476.594 295.104 487.193 295.104L487.178 295.058Z" fill="white"/>
<path d="M802.124 119.623C810.759 119.623 819.393 119.456 828.013 119.699C830.16 119.642 832.271 120.263 834.045 121.475C835.82 122.686 837.167 124.425 837.896 126.446C838.742 128.345 838.94 130.47 838.458 132.493C837.976 134.516 836.842 136.324 835.231 137.639C832.242 139.903 828.637 141.21 824.891 141.385C808.84 141.735 792.758 141.583 776.707 141.385C770.859 141.385 765.301 135.492 765.24 129.872C765.24 124.694 770.448 119.928 776.646 119.836C785.128 119.715 793.626 119.836 802.109 119.836L802.124 119.623Z" fill="white"/>
<path d="M252.396 222.691C240.914 222.356 232.599 213.067 232.979 200.808C233.269 189.477 242.802 180.904 254.787 181.193C257.482 181.25 260.14 181.838 262.608 182.924C265.076 184.009 267.305 185.57 269.17 187.517C271.034 189.465 272.496 191.761 273.472 194.274C274.448 196.787 274.919 199.468 274.859 202.163C274.63 213.249 263.94 223.026 252.396 222.691Z" fill="white"/>
<path d="M253.356 599.832C250.618 599.906 247.893 599.432 245.341 598.435C242.79 597.439 240.464 595.942 238.502 594.032C236.539 592.122 234.979 589.838 233.913 587.315C232.848 584.791 232.299 582.08 232.299 579.341C232.299 576.603 232.848 573.892 233.913 571.368C234.979 568.845 236.539 566.561 238.502 564.651C240.464 562.741 242.79 561.244 245.341 560.247C247.893 559.251 250.618 558.776 253.356 558.851C265.676 558.851 274.28 567.181 274.676 578.938C275.224 589.903 264.747 599.786 253.356 599.832Z" fill="white"/>
<path d="M253.873 13.5698C266.163 13.8744 275.392 23.2096 274.996 34.8901C274.645 45.2609 263.94 54.9007 253.234 54.4895C241.797 54.0326 232.705 44.606 233.132 33.6261C233.589 21.9304 242.497 13.2957 253.873 13.5698Z" fill="white"/>
<path d="M829.399 470.661H848.465C851.511 470.661 852.866 471.666 851.815 475.139C850.715 479.042 849.88 483.016 849.318 487.032C848.724 490.58 847.551 492.682 843.226 492.56C832.566 492.271 822.028 492.56 811.444 492.377C808.766 492.313 806.147 491.574 803.83 490.23C799.642 487.657 797.845 482.936 798.956 479.433C799.639 477.015 801.045 474.864 802.986 473.268C804.927 471.673 807.31 470.71 809.815 470.509C816.317 470.342 822.82 470.509 829.338 470.509L829.399 470.661Z" fill="white"/>
</svg>
